<svg width="54" height="40" viewBox="0 0 54 40" fill="none" xmlns="http://www.w3.org/2000/svg">
<path d="M22.2353 16C22.2353 15.1163 22.9464 14.4 23.8235 14.4C24.7007 14.4 25.4118 15.1163 25.4118 16V34.4C25.4118 37.6308 22.1193 40 18.2647 40C14.4101 40 11.1176 37.6308 11.1176 34.4C11.1176 31.1692 14.4101 28.8 18.2647 28.8C19.7166 28.8 21.0888 29.1361 22.2353 29.7279V16ZM18.2647 36.8C20.5502 36.8 22.2353 35.5875 22.2353 34.4C22.2353 33.2125 20.5502 32 18.2647 32C15.9792 32 14.2941 33.2125 14.2941 34.4C14.2941 35.5875 15.9792 36.8 18.2647 36.8ZM39.7059 15.3279V1.6C39.7059 0.716345 40.417 0 41.2941 0C42.1713 0 42.8824 0.716345 42.8824 1.6V20C42.8824 23.2308 39.5899 25.6 35.7353 25.6C31.8807 25.6 28.5882 23.2308 28.5882 20C28.5882 16.7692 31.8807 14.4 35.7353 14.4C37.1872 14.4 38.5594 14.7361 39.7059 15.3279ZM35.7353 22.4C38.0208 22.4 39.7059 21.1875 39.7059 20C39.7059 18.8125 38.0208 17.6 35.7353 17.6C33.4498 17.6 31.7647 18.8125 31.7647 20C31.7647 21.1875 33.4498 22.4 35.7353 22.4ZM52.4118 32.8C53.2889 32.8 54 33.5163 54 34.4C54 35.2837 53.2889 36 52.4118 36H30.1765C29.2993 36 28.5882 35.2837 28.5882 34.4C28.5882 33.5163 29.2993 32.8 30.1765 32.8H52.4118ZM6.35294 32.8C7.2301 32.8 7.94118 33.5163 7.94118 34.4C7.94118 35.2837 7.2301 36 6.35294 36H1.58824C0.711077 36 0 35.2837 0 34.4C0 33.5163 0.711077 32.8 1.58824 32.8H6.35294ZM17.4706 18.4C18.3477 18.4 19.0588 19.1163 19.0588 20C19.0588 20.8837 18.3477 21.6 17.4706 21.6H1.58824C0.711077 21.6 0 20.8837 0 20C0 19.1163 0.711077 18.4 1.58824 18.4H17.4706ZM52.4118 18.4C53.2889 18.4 54 19.1163 54 20C54 20.8837 53.2889 21.6 52.4118 21.6H47.6471C46.7699 21.6 46.0588 20.8837 46.0588 20C46.0588 19.1163 46.7699 18.4 47.6471 18.4H52.4118ZM34.9412 4C35.8183 4 36.5294 4.71634 36.5294 5.6C36.5294 6.48366 35.8183 7.2 34.9412 7.2H1.58824C0.711077 7.2 0 6.48366 0 5.6C0 4.71634 0.711077 4 1.58824 4H34.9412ZM52.4118 4C53.2889 4 54 4.71634 54 5.6C54 6.48366 53.2889 7.2 52.4118 7.2H47.6471C46.7699 7.2 46.0588 6.48366 46.0588 5.6C46.0588 4.71634 46.7699 4 47.6471 4H52.4118Z" fill="#F61A30"/>
</svg>
